<?xml version="1.0" standalone="no"?>
<!DOCTYPE svg PUBLIC "-//W3C//DTD SVG 20010904//EN"
 "http://www.w3.org/TR/2001/REC-SVG-20010904/DTD/svg10.dtd">
<svg version="1.0" xmlns="http://www.w3.org/2000/svg"
 width="2560.000000pt" height="800.000000pt" viewBox="0 0 2560.000000 800.000000"
 preserveAspectRatio="xMidYMid meet">

<g transform="translate(0.000000,800.000000) scale(0.100000,-0.100000)"
fill="#FF585D" stroke="none">
<path d="M3580 7983 c-163 -17 -381 -89 -522 -174 -246 -148 -414 -331 -595
-649 -135 -237 -985 -1923 -1363 -2705 -418 -865 -820 -1733 -945 -2040 -103
-251 -148 -471 -147 -720 0 -195 24 -344 82 -518 203 -607 718 -1044 1355
-1148 133 -22 398 -17 550 10 316 56 593 172 905 379 185 123 350 262 586 495
l222 218 83 -92 c251 -275 618 -574 909 -740 379 -217 816 -320 1185 -279 214
24 360 68 570 170 171 83 286 163 423 295 310 298 484 675 534 1158 21 201
-23 473 -114 705 -41 107 -221 517 -272 622 -15 30 -103 217 -195 415 -532
1139 -988 2066 -1578 3210 -322 625 -375 717 -494 865 -239 297 -516 464 -854
515 -91 14 -237 17 -325 8z m365 -538 c200 -55 383 -193 512 -385 178 -266
1204 -2327 1956 -3930 60 -129 124 -269 142 -310 18 -41 70 -156 115 -255 216
-472 245 -573 245 -855 0 -278 -55 -466 -203 -690 -68 -102 -211 -248 -307
-311 -220 -146 -427 -209 -690 -209 -160 0 -281 19 -436 70 -354 116 -669 338
-1092 768 l-149 151 58 73 c524 665 830 1253 930 1788 32 169 43 421 24 566
-61 488 -412 906 -888 1059 -365 117 -757 88 -1095 -81 -232 -116 -453 -336
-567 -564 -191 -383 -193 -808 -5 -1350 146 -420 426 -903 804 -1389 l80 -104
-18 -26 c-33 -46 -323 -333 -426 -422 -193 -166 -372 -287 -570 -386 -201
-101 -383 -150 -590 -160 -424 -19 -787 149 -1040 482 -69 90 -161 283 -190
400 -62 242 -45 521 46 782 130 369 1280 2756 1994 4138 302 585 353 679 419
775 143 208 330 338 556 386 84 18 302 11 385 -11z m-16 -2900 c332 -79 562
-324 616 -657 68 -418 -102 -926 -520 -1558 -133 -200 -301 -430 -314 -430 -5
0 -54 60 -109 132 -439 586 -685 1103 -732 1537 -24 211 3 387 82 551 45 94
60 115 147 200 77 77 114 105 186 142 97 50 195 83 290 98 79 12 274 4 354
-15z"/>
<path d="M12840 6484 c-90 -24 -161 -65 -230 -134 -102 -102 -150 -217 -150
-360 0 -147 44 -254 151 -363 227 -230 594 -198 781 67 143 204 120 475 -56
650 -132 131 -324 186 -496 140z"/>
<path d="M15960 4270 l0 -2220 330 0 c363 0 375 2 405 60 10 19 15 57 15 111
l0 81 68 -64 c262 -247 652 -326 1091 -222 395 93 740 349 948 701 233 397
284 913 137 1372 -55 170 -174 379 -303 530 -191 224 -504 405 -816 471 -422
90 -799 8 -1057 -229 l-58 -53 0 841 0 841 -380 0 -380 0 0 -2220z m1620 134
c187 -35 340 -112 461 -233 90 -91 147 -184 188 -306 79 -239 63 -504 -43
-720 -106 -215 -298 -363 -552 -427 -130 -33 -375 -33 -487 0 -148 43 -305
142 -387 244 l-40 51 0 546 0 546 78 75 c113 108 259 189 407 224 82 20 274
20 375 0z"/>
<path d="M22520 4270 l0 -2220 330 0 c369 0 379 2 406 65 8 20 14 67 14 112
l0 77 41 -42 c362 -377 1063 -390 1610 -30 126 83 314 271 398 398 140 210
227 440 261 685 16 117 13 364 -5 485 -86 582 -455 1041 -990 1235 -118 43
-254 72 -403 86 -324 31 -642 -68 -848 -263 l-54 -51 0 842 0 841 -380 0 -380
0 0 -2220z m1620 134 c219 -41 408 -152 525 -306 192 -253 227 -647 85 -944
-119 -247 -355 -410 -659 -454 -102 -15 -293 -8 -376 14 -140 38 -302 138
-390 240 l-45 53 0 550 0 550 68 65 c119 114 251 190 396 228 91 24 281 26
396 4z"/>
<path d="M10415 5119 c-366 -38 -679 -184 -926 -429 -121 -120 -187 -206 -259
-336 -98 -177 -165 -382 -190 -587 -18 -142 -8 -433 20 -562 145 -680 657
-1149 1340 -1226 241 -27 468 8 657 101 102 50 230 142 271 195 l22 28 0 -77
c0 -44 6 -91 14 -111 27 -63 37 -65 406 -65 l330 0 0 1500 0 1500 -327 0
c-359 0 -361 -1 -400 -59 -19 -28 -23 -47 -23 -108 l0 -75 -57 53 c-221 203
-533 294 -878 258z m482 -729 c152 -39 303 -128 401 -235 l52 -57 0 -550 0
-550 -67 -70 c-108 -112 -226 -181 -383 -224 -92 -26 -325 -26 -435 0 -340 78
-572 298 -645 609 -72 307 0 626 187 828 209 225 578 328 890 249z"/>
<path d="M15195 5119 c-184 -27 -419 -140 -547 -263 -26 -25 -50 -46 -53 -46
-3 0 -5 34 -5 75 0 49 -6 87 -16 106 -28 56 -50 59 -409 59 l-325 0 0 -1505 0
-1505 380 0 380 0 0 1054 0 1054 65 60 c111 105 247 173 411 207 137 29 398
19 542 -21 l22 -6 0 350 0 350 -52 12 c-61 13 -234 30 -293 28 -22 0 -67 -4
-100 -9z"/>
<path d="M20751 5119 c-230 -24 -437 -112 -607 -256 l-64 -54 0 74 c0 61 -4
80 -23 108 -39 58 -43 59 -379 59 l-308 0 0 -1500 0 -1500 375 0 375 0 0 1040
c0 934 2 1043 16 1065 23 35 139 127 219 175 163 95 374 131 570 97 175 -31
284 -109 350 -250 71 -150 68 -115 72 -1179 l4 -958 380 0 380 0 -4 1018 c-3
910 -5 1028 -21 1120 -44 263 -118 424 -265 575 -215 222 -459 336 -786 367
-124 11 -164 11 -284 -1z"/>
<path d="M12590 3550 l0 -1500 380 0 380 0 0 1500 0 1500 -380 0 -380 0 0
-1500z"/>
</g>
</svg>
